<svg xmlns="http://www.w3.org/2000/svg" viewBox="0 0 48 48" width="48" height="48">
  <defs>
    <linearGradient id="bg" x1="0%" y1="0%" x2="100%" y2="100%">
      <stop offset="0%" style="stop-color:#4a90d9"/>
      <stop offset="100%" style="stop-color:#1c71d8"/>
    </linearGradient>
  </defs>
  <rect width="48" height="48" rx="8" fill="url(#bg)"/>
  <g fill="#fff">
    <!-- Shield shape -->
    <path d="M24 6c-8 0-14 4-14 4v18c0 8 14 14 14 14s14-6 14-14V10s-6-4-14-4z" fill-opacity="0.2"/>
    <path d="M24 8c-7 0-12 3.5-12 3.5v16c0 7 12 12.5 12 12.5s12-5.5 12-12.5v-16S31 8 24 8z" fill="none" stroke="#fff" stroke-width="2"/>
    <!-- VPN arrow/connection symbol -->
    <circle cx="24" cy="20" r="4" fill="#fff"/>
    <path d="M24 26v8M20 30l4 4 4-4" fill="none" stroke="#fff" stroke-width="2" stroke-linecap="round" stroke-linejoin="round"/>
  </g>
</svg>
