<svg xmlns="http://www.w3.org/2000/svg" viewBox="0 0 16 16" width="16" height="16">
  <g fill="#bebebe">
    <!-- Shield outline -->
    <path d="M8 1C5.5 1 3 2.5 3 2.5v7c0 4 5 6.5 5 6.5s5-2.5 5-6.5v-7S10.5 1 8 1zm0 1.5c2 0 3.5 1 3.5 1v6c0 3-3.5 5-3.5 5s-3.5-2-3.5-5v-6s1.5-1 3.5-1z"/>
    <!-- VPN symbol -->
    <circle cx="8" cy="6" r="1.5"/>
    <path d="M8 8.5v3M6.5 10l1.5 1.5 1.5-1.5" fill="none" stroke="#bebebe" stroke-width="1.2" stroke-linecap="round" stroke-linejoin="round"/>
  </g>
</svg>
